<svg width="152" height="35" viewBox="0 0 152 35" fill="none" xmlns="http://www.w3.org/2000/svg">
<g clip-path="url(#clip0_2066_3522)">
<path d="M17.4264 34.9716C27.0491 34.9716 34.8498 27.1429 34.8498 17.4858C34.8498 7.82865 27.0491 0 17.4264 0C7.80379 0 0.00309753 7.82865 0.00309753 17.4858C0.00309753 27.1429 7.80379 34.9716 17.4264 34.9716Z" fill="#4399EB"/>
<path d="M53.2647 10.1501V25.077H50.9982L42.7823 14.9836V25.077H40.0343V10.1501H42.3007L50.4883 20.2435V10.1501H53.2647Z" fill="white"/>
<path d="M56.9193 11.3729C56.5794 11.0601 56.4377 10.6905 56.4377 10.2356C56.4377 9.78066 56.6077 9.41104 56.9193 9.09829C57.231 8.78553 57.6559 8.64337 58.1375 8.64337C58.6192 8.64337 59.0158 8.78553 59.3558 9.06985C59.6674 9.35418 59.8374 9.72379 59.8374 10.1787C59.8374 10.6336 59.6674 11.0317 59.3558 11.3729C59.0441 11.714 58.6192 11.8562 58.1375 11.8562C57.6276 11.8278 57.231 11.6572 56.9193 11.3729ZM56.7777 13.7043H59.4407V25.0772H56.7777V13.7043Z" fill="white"/>
<path d="M65.6452 13.1072V13.7895H68.7615V15.9219H65.7302V25.1055H63.0671V15.9219H61.1973V13.7895H63.0671V13.0787C63.0671 11.8561 63.407 10.8894 64.1436 10.1786C64.8519 9.46783 65.8435 9.12665 67.1467 9.12665C68.1666 9.12665 68.9598 9.32567 69.5548 9.75216L68.8182 11.7424C68.3649 11.4297 67.8833 11.2875 67.345 11.2875C66.2118 11.2591 65.6452 11.8846 65.6452 13.1072Z" fill="white"/>
<path d="M77.1474 24.4801C76.8357 24.736 76.4674 24.935 76.0142 25.0487C75.5609 25.1625 75.1076 25.2478 74.5976 25.2478C73.3511 25.2478 72.3878 24.935 71.7079 24.2811C71.028 23.6271 70.688 22.6889 70.688 21.4094V15.922H68.8182V13.7896H70.688V11.2023H73.3511V13.7896H76.3825V15.922H73.3511V21.3241C73.3511 21.8928 73.4927 22.2908 73.7477 22.6036C74.0027 22.8879 74.3993 23.0301 74.9093 23.0301C75.5042 23.0301 75.9858 22.8879 76.3825 22.5751L77.1474 24.4801Z" fill="white"/>
<path d="M89.5562 13.7043L84.23 26.0154C83.7201 27.2664 83.1251 28.1194 82.4169 28.6312C81.7086 29.143 80.8587 29.3988 79.8388 29.3988C79.2722 29.3988 78.7056 29.3135 78.1673 29.1145C77.6007 28.9155 77.1757 28.6596 76.8074 28.3468L77.884 26.385C78.139 26.6125 78.4506 26.8115 78.7906 26.9537C79.1305 27.0958 79.4988 27.1811 79.8388 27.1811C80.3204 27.1811 80.6887 27.0674 81.0003 26.8115C81.312 26.5556 81.5953 26.1576 81.8503 25.5889L82.0486 25.134L77.0624 13.7043H79.8388L83.4085 22.1202L87.0064 13.7043H89.5562Z" fill="white"/>
<path d="M92.8709 11.5148H87.6297V10.1501H99.6702V11.5148H94.4291V25.077H92.8709V11.5148Z" fill="white"/>
<path d="M103.807 14.3583C104.515 13.9602 105.365 13.7896 106.413 13.7896V15.2681L106.045 15.2397C104.855 15.2397 103.948 15.6093 103.268 16.3201C102.588 17.0593 102.277 18.0544 102.277 19.3623V25.0772H100.775V13.8749H102.22V16.0642C102.56 15.3249 103.098 14.7563 103.807 14.3583Z" fill="white"/>
<path d="M115.592 14.87C116.357 15.6093 116.754 16.6897 116.754 18.1113V25.0772H115.309V23.3428C114.969 23.9399 114.459 24.3948 113.807 24.7076C113.156 25.0487 112.362 25.1909 111.456 25.1909C110.209 25.1909 109.218 24.9066 108.481 24.3095C107.744 23.7124 107.376 22.9163 107.376 21.9496C107.376 21.0114 107.716 20.2437 108.396 19.6466C109.076 19.078 110.181 18.7652 111.682 18.7652H115.224V18.0829C115.224 17.1162 114.94 16.3769 114.43 15.8651C113.892 15.3534 113.099 15.0975 112.079 15.0975C111.371 15.0975 110.691 15.2112 110.039 15.4387C109.388 15.6661 108.821 16.0073 108.368 16.4054L107.688 15.2681C108.254 14.7847 108.934 14.4151 109.728 14.1592C110.521 13.9033 111.342 13.7612 112.221 13.7612C113.694 13.7896 114.799 14.1592 115.592 14.87ZM113.892 23.3997C114.487 23.0016 114.969 22.433 115.252 21.6937V19.8741H111.739C109.813 19.8741 108.878 20.5565 108.878 21.8643C108.878 22.5183 109.133 23.0301 109.614 23.3997C110.124 23.7693 110.804 23.9683 111.682 23.9683C112.561 23.9968 113.269 23.7977 113.892 23.3997Z" fill="white"/>
<path d="M130.324 9.2688V25.0771H128.879V22.8594C128.426 23.627 127.831 24.1957 127.094 24.5937C126.358 24.9918 125.508 25.1908 124.573 25.1908C123.525 25.1908 122.59 24.9634 121.74 24.48C120.89 23.9967 120.21 23.3143 119.757 22.4613C119.275 21.6084 119.048 20.6132 119.048 19.5044C119.048 18.3955 119.275 17.4004 119.757 16.5474C120.238 15.6945 120.89 15.0121 121.74 14.5288C122.59 14.0454 123.525 13.8179 124.573 13.8179C125.479 13.8179 126.301 14.017 127.038 14.3866C127.774 14.7562 128.369 15.3249 128.822 16.0357V9.2688H130.324ZM126.811 23.3143C127.434 22.9447 127.944 22.4329 128.312 21.779C128.681 21.125 128.851 20.3573 128.851 19.5044C128.851 18.6514 128.681 17.8837 128.312 17.2298C127.944 16.5759 127.463 16.0357 126.811 15.6945C126.188 15.3249 125.479 15.1543 124.686 15.1543C123.893 15.1543 123.185 15.3249 122.561 15.6945C121.938 16.0641 121.428 16.5759 121.06 17.2298C120.692 17.9122 120.522 18.6514 120.522 19.5044C120.522 20.3573 120.692 21.125 121.06 21.779C121.428 22.4613 121.91 22.9731 122.561 23.3143C123.185 23.6839 123.893 23.8545 124.686 23.8545C125.479 23.8545 126.159 23.6555 126.811 23.3143Z" fill="white"/>
<path d="M144.036 19.9594H134.687C134.772 21.1251 135.225 22.0634 136.018 22.7742C136.812 23.485 137.86 23.8546 139.078 23.8546C139.758 23.8546 140.41 23.7409 141.005 23.485C141.571 23.2291 142.081 22.8595 142.506 22.3761L143.356 23.3428C142.846 23.9399 142.251 24.3948 141.486 24.7075C140.75 25.0203 139.928 25.1625 139.021 25.1625C137.86 25.1625 136.868 24.9066 135.962 24.4232C135.084 23.9399 134.375 23.2575 133.894 22.3761C133.384 21.5231 133.157 20.528 133.157 19.4192C133.157 18.3387 133.384 17.3436 133.865 16.4622C134.347 15.6093 134.999 14.9269 135.82 14.4435C136.642 13.9602 137.577 13.7327 138.625 13.7327C139.645 13.7327 140.58 13.9886 141.401 14.4435C142.223 14.9269 142.874 15.6093 143.328 16.4622C143.809 17.3152 144.036 18.3103 144.036 19.4192V19.9594ZM135.933 16.121C135.197 16.8034 134.8 17.7132 134.687 18.8221H142.619C142.506 17.7132 142.11 16.8034 141.373 16.121C140.636 15.4387 139.73 15.0975 138.653 15.0975C137.577 15.0975 136.67 15.4387 135.933 16.121Z" fill="white"/>
<path d="M149.39 14.3583C150.099 13.9602 150.949 13.7896 151.997 13.7896V15.2681L151.629 15.2397C150.439 15.2397 149.532 15.6093 148.852 16.3201C148.172 17.0593 147.861 18.0544 147.861 19.3623V25.0772H146.359V13.8749H147.804V16.0642C148.172 15.3249 148.682 14.7563 149.39 14.3583Z" fill="white"/>
<path d="M87.7997 27.2948V28.2045H89.2446V28.6877H87.7997V29.8249H87.2331V26.8399H89.4146V27.2948H87.7997Z" fill="white"/>
<path d="M89.8395 27.0674C89.7829 27.0105 89.7545 26.9252 89.7545 26.8399C89.7545 26.7546 89.7829 26.6694 89.8395 26.6125C89.8962 26.5556 89.9812 26.5272 90.0945 26.5272C90.2078 26.5272 90.2645 26.5556 90.3495 26.6125C90.4061 26.6694 90.4345 26.7546 90.4345 26.8399C90.4345 26.9252 90.4061 27.0105 90.3495 27.0674C90.2928 27.1242 90.2078 27.1526 90.0945 27.1526C89.9812 27.1811 89.8962 27.1242 89.8395 27.0674ZM89.8112 27.5506H90.3495V29.8249H89.8112V27.5506Z" fill="white"/>
<path d="M92.9842 27.7781C93.1542 27.9486 93.2392 28.2045 93.2392 28.5172V29.8249H92.7009V28.6025C92.7009 28.4035 92.6442 28.2613 92.5593 28.1476C92.4743 28.0339 92.3326 28.0055 92.1626 28.0055C91.9643 28.0055 91.8227 28.0623 91.7093 28.1761C91.596 28.2898 91.5393 28.4603 91.5393 28.6878V29.8249H91.0011V27.5506H91.511V27.8349C91.596 27.7212 91.7093 27.6359 91.851 27.6075C91.9926 27.5506 92.1343 27.5222 92.3043 27.5222C92.5592 27.5222 92.7859 27.6075 92.9842 27.7781Z" fill="white"/>
<path d="M96.1006 26.6694V29.8249H95.5906V29.5406C95.5056 29.6543 95.3923 29.7396 95.279 29.7965C95.1373 29.8533 94.9957 29.8817 94.854 29.8817C94.6274 29.8817 94.4291 29.8249 94.2591 29.7396C94.0891 29.6543 93.9475 29.5122 93.8625 29.3416C93.7775 29.171 93.7208 28.972 93.7208 28.7162C93.7208 28.4888 93.7775 28.2898 93.8625 28.1192C93.9758 27.9486 94.0891 27.8065 94.2591 27.7212C94.4291 27.6359 94.6274 27.5791 94.854 27.5791C94.9957 27.5791 95.1373 27.6075 95.279 27.6644C95.3923 27.7212 95.5056 27.8065 95.5906 27.8918V26.7262H96.1006V26.6694ZM95.2507 29.3132C95.364 29.2563 95.4207 29.171 95.5056 29.0573C95.5906 28.9436 95.5906 28.8299 95.5906 28.6878C95.5906 28.5456 95.5623 28.4319 95.5056 28.3182C95.449 28.2045 95.364 28.1192 95.2507 28.0623C95.1373 28.0055 95.024 27.9771 94.9107 27.9771C94.7974 27.9771 94.6557 28.0055 94.5707 28.0623C94.4857 28.1192 94.4007 28.2045 94.3158 28.3182C94.2308 28.4319 94.2308 28.5456 94.2308 28.6878C94.2308 28.8299 94.2591 28.9436 94.3158 29.0573C94.3724 29.171 94.4574 29.2563 94.5707 29.3132C94.6841 29.37 94.7974 29.3985 94.9107 29.3985C95.024 29.3985 95.1657 29.37 95.2507 29.3132Z" fill="white"/>
<path d="M100.01 27.5507L98.9337 30.0239C98.8203 30.2798 98.707 30.4503 98.5654 30.5356C98.4237 30.6493 98.2537 30.6777 98.0554 30.6777C97.9421 30.6777 97.8288 30.6493 97.7154 30.6209C97.6021 30.5925 97.5171 30.5356 97.4321 30.4788L97.6588 30.0808C97.7154 30.1376 97.7721 30.166 97.8288 30.1945C97.8854 30.2229 97.9704 30.2513 98.0271 30.2513C98.1121 30.2513 98.1971 30.2229 98.2537 30.166C98.3104 30.1092 98.367 30.0239 98.4237 29.9102L98.452 29.8249L97.4605 27.5507H98.0271L98.7353 29.2279L99.4436 27.5507H100.01Z" fill="white"/>
<path d="M100.633 29.7112C100.463 29.6259 100.294 29.4838 100.209 29.2848C100.124 29.0858 100.067 28.9152 100.067 28.6878C100.067 28.4603 100.124 28.2613 100.209 28.0908C100.294 27.9202 100.463 27.7781 100.633 27.6644C100.832 27.5791 101.03 27.5222 101.257 27.5222C101.483 27.5222 101.71 27.5791 101.88 27.6644C102.05 27.7781 102.22 27.8918 102.305 28.0908C102.39 28.2898 102.447 28.4603 102.447 28.6878C102.447 28.9152 102.39 29.1142 102.305 29.2848C102.22 29.4553 102.05 29.5975 101.88 29.7112C101.682 29.7965 101.483 29.8533 101.257 29.8533C101.03 29.8533 100.832 29.7965 100.633 29.7112ZM101.738 29.1995C101.88 29.0573 101.937 28.8868 101.937 28.6878C101.937 28.4888 101.88 28.2898 101.738 28.1761C101.597 28.0623 101.455 27.9771 101.257 27.9771C101.058 27.9771 100.888 28.0339 100.775 28.1761C100.662 28.3182 100.577 28.4888 100.577 28.6878C100.577 28.8868 100.633 29.0858 100.775 29.1995C100.888 29.3416 101.058 29.3985 101.257 29.3985C101.455 29.3985 101.625 29.3416 101.738 29.1995Z" fill="white"/>
<path d="M105.138 27.5507V29.8249H104.628V29.5406C104.543 29.6543 104.43 29.7112 104.316 29.768C104.203 29.8249 104.061 29.8533 103.892 29.8533C103.58 29.8533 103.353 29.768 103.183 29.5975C103.013 29.4269 102.928 29.1711 102.928 28.8584V27.5507H103.467V28.7731C103.467 28.9721 103.523 29.1426 103.608 29.2279C103.693 29.3416 103.835 29.3701 104.005 29.3701C104.203 29.3701 104.345 29.3132 104.458 29.1995C104.571 29.0858 104.628 28.9152 104.628 28.6878V27.5507H105.138Z" fill="white"/>
<path d="M107.093 27.5222V28.0339C107.036 28.0339 107.008 28.0339 106.98 28.0339C106.781 28.0339 106.611 28.0908 106.498 28.2045C106.385 28.3182 106.328 28.4888 106.328 28.7162V29.8249H105.79V27.5506H106.3V27.8634C106.441 27.6359 106.725 27.5222 107.093 27.5222Z" fill="white"/>
<path d="M107.688 29.768C107.518 29.7112 107.376 29.6543 107.263 29.5975L107.461 29.1995C107.574 29.2563 107.688 29.3132 107.829 29.37C107.971 29.3985 108.113 29.4269 108.254 29.4269C108.566 29.4269 108.736 29.3416 108.736 29.171C108.736 29.0858 108.708 29.0289 108.623 29.0005C108.538 28.972 108.424 28.9436 108.226 28.9152C108.028 28.8868 107.886 28.8583 107.773 28.8299C107.659 28.8015 107.546 28.7162 107.461 28.6309C107.376 28.5456 107.32 28.4035 107.32 28.2329C107.32 28.0055 107.404 27.8349 107.603 27.7212C107.773 27.5791 108.028 27.5222 108.339 27.5222C108.481 27.5222 108.651 27.5506 108.821 27.5791C108.963 27.6075 109.104 27.6644 109.189 27.7212L108.991 28.1192C108.793 28.0055 108.594 27.9486 108.339 27.9486C108.169 27.9486 108.056 27.9771 107.971 28.0055C107.886 28.0339 107.858 28.1192 107.858 28.2045C107.858 28.2898 107.914 28.3466 107.999 28.3751C108.084 28.4035 108.226 28.4319 108.396 28.4888C108.566 28.5172 108.736 28.5456 108.849 28.5741C108.963 28.6025 109.076 28.6593 109.161 28.7731C109.246 28.8583 109.274 29.0005 109.274 29.1426C109.274 29.37 109.189 29.5406 108.991 29.6543C108.793 29.7965 108.566 29.8533 108.226 29.8533C108.028 29.8533 107.858 29.8249 107.688 29.768Z" fill="white"/>
<path d="M111.796 28.8583H110.011C110.039 29.0289 110.124 29.171 110.266 29.2563C110.408 29.3416 110.549 29.3985 110.748 29.3985C111.002 29.3985 111.201 29.3132 111.371 29.1426L111.654 29.4838C111.541 29.5975 111.427 29.7112 111.257 29.768C111.087 29.8249 110.917 29.8533 110.719 29.8533C110.464 29.8533 110.238 29.7965 110.068 29.7112C109.898 29.6259 109.728 29.4838 109.614 29.2848C109.501 29.0858 109.473 28.9152 109.473 28.6878C109.473 28.4603 109.529 28.2613 109.614 28.0908C109.728 27.9202 109.841 27.7781 110.039 27.6644C110.209 27.5791 110.408 27.5222 110.634 27.5222C110.861 27.5222 111.059 27.5791 111.229 27.6644C111.399 27.7496 111.541 27.8918 111.626 28.0908C111.711 28.2613 111.767 28.4603 111.767 28.7162C111.796 28.7446 111.796 28.7731 111.796 28.8583ZM110.209 28.0908C110.096 28.2045 110.011 28.3182 109.983 28.4888H111.257C111.229 28.3182 111.172 28.2045 111.059 28.0908C110.946 27.9771 110.804 27.9486 110.634 27.9486C110.493 27.9486 110.351 28.0055 110.209 28.0908Z" fill="white"/>
<path d="M112.277 26.6694H112.816V29.8249H112.277V26.6694Z" fill="white"/>
<path d="M114.034 27.4369V27.5791H114.657V28.0055H114.062V29.8533H113.524V28.0055H113.156V27.5791H113.524V27.4369C113.524 27.1811 113.581 27.0105 113.751 26.8684C113.892 26.7262 114.091 26.6694 114.345 26.6694C114.544 26.6694 114.714 26.6978 114.827 26.7831L114.685 27.1811C114.6 27.1242 114.487 27.0958 114.402 27.0958C114.147 27.0674 114.034 27.1811 114.034 27.4369Z" fill="white"/>
<path d="M118.397 29.8533L118.028 29.4837C117.745 29.7112 117.405 29.8533 117.037 29.8533C116.839 29.8533 116.64 29.8249 116.47 29.7396C116.3 29.6543 116.187 29.569 116.074 29.4553C115.989 29.3416 115.932 29.1995 115.932 29.0573C115.932 28.8868 115.989 28.7162 116.102 28.5741C116.215 28.4319 116.385 28.2898 116.64 28.1476C116.527 28.0339 116.442 27.9202 116.385 27.8065C116.329 27.6928 116.3 27.6075 116.3 27.4938C116.3 27.2948 116.385 27.1242 116.527 26.9821C116.697 26.8399 116.895 26.7831 117.15 26.7831C117.377 26.7831 117.575 26.8399 117.717 26.9537C117.859 27.0674 117.943 27.2379 117.943 27.4369C117.943 27.5791 117.887 27.7212 117.802 27.8349C117.717 27.9486 117.547 28.0623 117.349 28.2045L118 28.8299C118.085 28.6878 118.113 28.5172 118.17 28.3182L118.595 28.4603C118.538 28.7162 118.453 28.9436 118.34 29.1426L118.708 29.5122L118.397 29.8533ZM117.717 29.1995L116.924 28.4319C116.754 28.5172 116.64 28.6025 116.555 28.7162C116.499 28.8015 116.442 28.8868 116.442 29.0005C116.442 29.1142 116.499 29.2279 116.612 29.3132C116.725 29.3985 116.867 29.4269 117.037 29.4269C117.292 29.4269 117.519 29.3416 117.717 29.1995ZM116.867 27.2664C116.81 27.3232 116.754 27.4085 116.754 27.4938C116.754 27.5506 116.782 27.6359 116.81 27.6928C116.839 27.7496 116.924 27.8349 117.037 27.9486C117.207 27.8634 117.32 27.7781 117.405 27.6928C117.462 27.6359 117.519 27.5506 117.519 27.4654C117.519 27.3801 117.49 27.2948 117.434 27.2664C117.377 27.2095 117.292 27.1811 117.179 27.1811C117.037 27.1811 116.952 27.2095 116.867 27.2664Z" fill="white"/>
<path d="M120.862 27.2948H119.87V26.8115H122.391V27.2948H121.4V29.7965H120.833V27.2948H120.862Z" fill="white"/>
<path d="M123.978 27.5222V28.0339C123.921 28.0339 123.893 28.0339 123.865 28.0339C123.666 28.0339 123.496 28.0908 123.383 28.2045C123.27 28.3182 123.213 28.4888 123.213 28.7162V29.8249H122.675V27.5506H123.185V27.8634C123.326 27.6359 123.581 27.5222 123.978 27.5222Z" fill="white"/>
<path d="M125.989 27.7496C126.159 27.9202 126.244 28.1476 126.244 28.4888V29.8249H125.734V29.5406C125.678 29.6259 125.564 29.7112 125.451 29.768C125.338 29.8249 125.196 29.8533 125.026 29.8533C124.856 29.8533 124.715 29.8249 124.573 29.768C124.431 29.7112 124.346 29.6259 124.29 29.5122C124.233 29.3985 124.176 29.2847 124.176 29.171C124.176 28.972 124.261 28.8015 124.403 28.6878C124.545 28.574 124.8 28.4888 125.111 28.4888H125.706V28.4603C125.706 28.2898 125.649 28.1761 125.564 28.0908C125.479 28.0055 125.338 27.9486 125.139 27.9486C124.998 27.9486 124.884 27.9771 124.771 28.0055C124.658 28.0339 124.545 28.0908 124.46 28.176L124.261 27.7781C124.375 27.6928 124.516 27.6075 124.686 27.5791C124.856 27.5506 125.026 27.4938 125.224 27.4938C125.564 27.5222 125.819 27.6075 125.989 27.7496ZM125.508 29.37C125.621 29.3132 125.678 29.2279 125.734 29.1142V28.8583H125.196C124.884 28.8583 124.743 28.972 124.743 29.171C124.743 29.2563 124.771 29.3416 124.856 29.3985C124.941 29.4553 125.026 29.4837 125.168 29.4837C125.309 29.4553 125.423 29.4269 125.508 29.37Z" fill="white"/>
<path d="M129.134 26.6694V29.8249H128.624V29.5406C128.539 29.6543 128.426 29.7396 128.313 29.7965C128.171 29.8533 128.029 29.8817 127.888 29.8817C127.661 29.8817 127.463 29.8249 127.293 29.7396C127.123 29.6543 126.981 29.5122 126.896 29.3416C126.811 29.171 126.754 28.972 126.754 28.7162C126.754 28.4888 126.811 28.2898 126.896 28.1192C127.009 27.9486 127.123 27.8065 127.293 27.7212C127.463 27.6359 127.661 27.5791 127.888 27.5791C128.029 27.5791 128.171 27.6075 128.313 27.6644C128.426 27.7212 128.539 27.8065 128.624 27.8918V26.7262H129.134V26.6694ZM128.284 29.3132C128.397 29.2563 128.454 29.171 128.539 29.0573C128.624 28.9436 128.624 28.8299 128.624 28.6878C128.624 28.5456 128.596 28.4319 128.539 28.3182C128.482 28.2045 128.397 28.1192 128.284 28.0623C128.171 28.0055 128.058 27.9771 127.944 27.9771C127.831 27.9771 127.689 28.0055 127.604 28.0623C127.519 28.1192 127.434 28.2045 127.349 28.3182C127.264 28.4319 127.264 28.5456 127.264 28.6878C127.264 28.8299 127.293 28.9436 127.349 29.0573C127.406 29.171 127.491 29.2563 127.604 29.3132C127.718 29.37 127.831 29.3985 127.944 29.3985C128.058 29.3985 128.199 29.37 128.284 29.3132Z" fill="white"/>
<path d="M131.939 28.8583H130.154C130.182 29.0289 130.267 29.171 130.409 29.2563C130.551 29.3416 130.692 29.3985 130.891 29.3985C131.146 29.3985 131.344 29.3132 131.514 29.1426L131.797 29.4838C131.684 29.5975 131.571 29.7112 131.401 29.768C131.231 29.8249 131.061 29.8533 130.862 29.8533C130.607 29.8533 130.381 29.7965 130.211 29.7112C130.041 29.6259 129.871 29.4838 129.757 29.2848C129.644 29.0858 129.616 28.9152 129.616 28.6878C129.616 28.4603 129.672 28.2613 129.757 28.0908C129.871 27.9202 129.984 27.7781 130.182 27.6644C130.352 27.5791 130.551 27.5222 130.777 27.5222C131.004 27.5222 131.202 27.5791 131.372 27.6644C131.542 27.7496 131.684 27.8918 131.769 28.0908C131.854 28.2613 131.911 28.4603 131.911 28.7162C131.939 28.7446 131.939 28.7731 131.939 28.8583ZM130.352 28.0908C130.239 28.2045 130.154 28.3182 130.126 28.4888H131.401C131.372 28.3182 131.316 28.2045 131.202 28.0908C131.089 27.9771 130.947 27.9486 130.777 27.9486C130.607 27.9486 130.466 28.0055 130.352 28.0908Z" fill="white"/>
<path d="M134.885 29.6827C134.829 29.7396 134.744 29.768 134.659 29.7965C134.574 29.8249 134.489 29.8249 134.375 29.8249C134.12 29.8249 133.922 29.768 133.809 29.6259C133.667 29.4837 133.61 29.3132 133.61 29.0573V27.9486H133.242V27.5222H133.61V27.0105H134.149V27.5222H134.744V27.9486H134.149V29.0289C134.149 29.1426 134.177 29.2279 134.234 29.2847C134.29 29.3416 134.375 29.37 134.46 29.37C134.574 29.37 134.687 29.3416 134.744 29.2847L134.885 29.6827Z" fill="white"/>
<path d="M137.265 27.7781C137.435 27.9486 137.52 28.2045 137.52 28.5172V29.8249H136.982V28.6025C136.982 28.4035 136.925 28.2613 136.84 28.1476C136.755 28.0339 136.613 28.0055 136.443 28.0055C136.245 28.0055 136.103 28.0623 135.99 28.1761C135.877 28.2898 135.82 28.4603 135.82 28.6878V29.8249H135.282V26.6694H135.82V27.8065C135.905 27.7212 136.018 27.6359 136.132 27.5791C136.273 27.5222 136.415 27.4938 136.557 27.4938C136.868 27.5222 137.095 27.6075 137.265 27.7781Z" fill="white"/>
<path d="M139.786 27.7496C139.956 27.9202 140.041 28.1476 140.041 28.4888V29.8249H139.531V29.5406C139.475 29.6259 139.361 29.7112 139.248 29.768C139.135 29.8249 138.993 29.8533 138.823 29.8533C138.653 29.8533 138.512 29.8249 138.37 29.768C138.228 29.7112 138.143 29.6259 138.087 29.5122C138.03 29.3985 137.973 29.2847 137.973 29.171C137.973 28.972 138.058 28.8015 138.2 28.6878C138.342 28.574 138.597 28.4888 138.908 28.4888H139.503V28.4603C139.503 28.2898 139.446 28.1761 139.361 28.0908C139.276 28.0055 139.135 27.9486 138.936 27.9486C138.795 27.9486 138.682 27.9771 138.568 28.0055C138.455 28.0339 138.342 28.0908 138.257 28.176L138.058 27.7781C138.172 27.6928 138.313 27.6075 138.483 27.5791C138.653 27.5506 138.823 27.4938 139.021 27.4938C139.361 27.5222 139.616 27.6075 139.786 27.7496ZM139.305 29.37C139.418 29.3132 139.475 29.2279 139.531 29.1142V28.8583H138.993C138.682 28.8583 138.54 28.972 138.54 29.171C138.54 29.2563 138.568 29.3416 138.653 29.3985C138.738 29.4553 138.823 29.4837 138.965 29.4837C139.078 29.4553 139.22 29.4269 139.305 29.37Z" fill="white"/>
<path d="M142.053 29.6827C141.996 29.7396 141.911 29.768 141.826 29.7965C141.741 29.8249 141.656 29.8249 141.543 29.8249C141.288 29.8249 141.09 29.768 140.976 29.6259C140.835 29.4837 140.778 29.3132 140.778 29.0573V27.9486H140.41V27.5222H140.778V27.0105H141.316V27.5222H141.911V27.9486H141.316V29.0289C141.316 29.1426 141.345 29.2279 141.401 29.2847C141.458 29.3416 141.543 29.37 141.628 29.37C141.741 29.37 141.855 29.3416 141.911 29.2847L142.053 29.6827Z" fill="white"/>
<path d="M147.124 27.5507L146.274 29.8249H145.764L145.169 28.2614L144.574 29.8249H144.064L143.243 27.5507H143.753L144.348 29.2279L144.971 27.5507H145.424L146.047 29.2279L146.671 27.5507H147.124Z" fill="white"/>
<path d="M149.022 27.7496C149.192 27.9202 149.277 28.1476 149.277 28.4888V29.8249H148.767V29.5406C148.711 29.6259 148.597 29.7112 148.484 29.768C148.371 29.8249 148.229 29.8533 148.059 29.8533C147.889 29.8533 147.747 29.8249 147.606 29.768C147.464 29.7112 147.379 29.6259 147.322 29.5122C147.266 29.3985 147.209 29.2847 147.209 29.171C147.209 28.972 147.294 28.8015 147.436 28.6878C147.577 28.574 147.832 28.4888 148.144 28.4888H148.739V28.4603C148.739 28.2898 148.682 28.1761 148.597 28.0908C148.512 28.0055 148.371 27.9486 148.172 27.9486C148.031 27.9486 147.917 27.9771 147.804 28.0055C147.691 28.0339 147.577 28.0908 147.492 28.176L147.294 27.7781C147.407 27.6928 147.549 27.6075 147.719 27.5791C147.889 27.5506 148.059 27.4938 148.257 27.4938C148.569 27.5222 148.824 27.6075 149.022 27.7496ZM148.541 29.37C148.654 29.3132 148.711 29.2279 148.767 29.1142V28.8583H148.229C147.917 28.8583 147.776 28.972 147.776 29.171C147.776 29.2563 147.804 29.3416 147.889 29.3985C147.974 29.4553 148.059 29.4837 148.201 29.4837C148.314 29.4553 148.427 29.4269 148.541 29.37Z" fill="white"/>
<path d="M151.997 27.5507L150.92 30.0239C150.807 30.2798 150.694 30.4503 150.552 30.5356C150.41 30.6493 150.24 30.6777 150.042 30.6777C149.929 30.6777 149.815 30.6493 149.702 30.6209C149.589 30.5925 149.504 30.5356 149.419 30.4788L149.645 30.0808C149.702 30.1376 149.759 30.166 149.815 30.1945C149.872 30.2229 149.957 30.2513 150.014 30.2513C150.099 30.2513 150.184 30.2229 150.24 30.166C150.297 30.1092 150.354 30.0239 150.41 29.9102L150.439 29.8249L149.447 27.5507H150.014L150.722 29.2279L151.43 27.5507H151.997Z" fill="white"/>
<path d="M31.485 20.8435C33.3188 13.0498 28.5098 5.23988 20.7439 3.39956C12.978 1.55924 5.19598 6.38543 3.36223 14.1792C1.52848 21.9729 6.33744 29.7828 14.1033 31.6231C21.8692 33.4635 29.6513 28.6373 31.485 20.8435Z" fill="#4399EB"/>
<path d="M17.4264 3.98055C24.8491 3.98055 30.8835 10.0366 30.8835 17.4858C30.8835 24.9351 24.8491 30.9911 17.4264 30.9911C10.0038 30.9911 3.96939 24.9635 3.96939 17.4858C3.96939 10.0082 10.0038 3.98055 17.4264 3.98055ZM17.4264 1.9903C8.89892 1.9903 1.98624 8.92774 1.98624 17.4858C1.98624 26.0439 8.89892 32.9814 17.4264 32.9814C25.954 32.9814 32.8666 26.0439 32.8666 17.4858C32.895 8.92774 25.9823 1.9903 17.4264 1.9903Z" fill="white"/>
<path d="M22.271 6.19824L19.0696 10.3778H20.7128V19.2202L14.1967 10.2356H11.0804V24.4801H9.43719L12.6386 28.6881L15.8399 24.4801H14.1967V15.4671L20.7128 24.6507H23.8292V10.3778H25.4723L22.271 6.19824Z" fill="white"/>
</g>
<defs>
<clipPath id="clip0_2066_3522">
<rect width="152" height="35" fill="white"/>
</clipPath>
</defs>
</svg>
