<svg width="40" height="40" viewBox="0 0 40 40" fill="none" xmlns="http://www.w3.org/2000/svg">
<mask id="mask0_1_674" style="mask-type:alpha" maskUnits="userSpaceOnUse" x="0" y="0" width="40" height="40">
<rect width="40" height="40" fill="#D9D9D9"/>
</mask>
<g mask="url(#mask0_1_674)">
<path d="M11.455 35.2117C11.2136 34.97 11.0929 34.6773 11.0929 34.3334C11.0929 33.9895 11.2136 33.6967 11.455 33.455L19.3654 25.5192C19.9401 24.9445 20.6517 24.6571 21.5 24.6571C22.3483 24.6571 23.0599 24.9445 23.6346 25.5192L26.9646 28.8496C27.0607 28.9457 27.1836 28.9938 27.3333 28.9938C27.4831 28.9938 27.606 28.9457 27.7021 28.8496L35.08 21.4713C35.3281 21.2235 35.6182 21.0968 35.9504 21.0913C36.2826 21.086 36.5781 21.2127 36.8367 21.4713C37.095 21.7299 37.2242 22.0268 37.2242 22.3621C37.2242 22.6977 37.095 22.9948 36.8367 23.2534L29.4679 30.6475C28.8932 31.2223 28.186 31.5096 27.3463 31.5096C26.5065 31.5096 25.7993 31.2223 25.2246 30.6475L21.8688 27.2917C21.7726 27.1956 21.6497 27.1475 21.5 27.1475C21.3503 27.1475 21.2274 27.1956 21.1313 27.2917L13.2117 35.2117C12.9808 35.4423 12.695 35.5645 12.3542 35.5784C12.0133 35.5923 11.7136 35.47 11.455 35.2117ZM7.17958 34.1667C6.33764 34.1667 5.625 33.875 5.04167 33.2917C4.45833 32.7084 4.16667 31.9957 4.16667 31.1538V8.84629C4.16667 8.00435 4.45833 7.29171 5.04167 6.70837C5.625 6.12504 6.33764 5.83337 7.17958 5.83337H29.4871C30.329 5.83337 31.0417 6.12504 31.625 6.70837C32.2083 7.29171 32.5 8.00435 32.5 8.84629V15.1605C32.5 15.5899 32.3563 15.9482 32.0688 16.2355C31.7815 16.523 31.4231 16.6667 30.9933 16.6667H6.66667V31.1538C6.66667 31.2821 6.72014 31.3996 6.82709 31.5063C6.93375 31.6132 7.05125 31.6667 7.17958 31.6667V34.1667ZM6.66667 14.1667H30V8.84629C30 8.71796 29.9465 8.60046 29.8396 8.49379C29.7329 8.38685 29.6154 8.33337 29.4871 8.33337H7.17958C7.05125 8.33337 6.93375 8.38685 6.82709 8.49379C6.72014 8.60046 6.66667 8.71796 6.66667 8.84629V14.1667Z" fill="#333333"/>
</g>
</svg>
