<svg width="60" height="60" viewBox="0 0 60 60" fill="none" xmlns="http://www.w3.org/2000/svg">
<mask id="mask0_2077_32" style="mask-type:alpha" maskUnits="userSpaceOnUse" x="0" y="0" width="60" height="60">
<rect width="60" height="60" fill="#D9D9D9"/>
</mask>
<g mask="url(#mask0_2077_32)">
<path d="M27.5001 45.0023C24.8751 45.0023 22.4272 44.5439 20.1564 43.6273C17.8855 42.7106 15.8751 41.4606 14.1251 39.8773C13.6251 39.4189 13.396 38.8668 13.4376 38.221C13.4793 37.5752 13.771 37.0231 14.3126 36.5648C14.8543 36.1064 15.4793 35.8877 16.1876 35.9085C16.896 35.9293 17.521 36.1689 18.0626 36.6273C19.396 37.7106 20.8439 38.5439 22.4064 39.1273C23.9689 39.7106 25.6668 40.0023 27.5001 40.0023C31.6668 40.0023 35.2085 38.5439 38.1251 35.6273C41.0418 32.7106 42.5001 29.1689 42.5001 25.0023C42.5001 20.8356 41.0418 17.2939 38.1251 14.3773C35.2085 11.4606 31.6668 10.0023 27.5001 10.0023C24.0418 10.0023 20.9897 11.0439 18.3439 13.1273C15.698 15.2106 13.9376 17.8564 13.0626 21.0648C12.8543 21.7731 12.4793 22.3981 11.9376 22.9398C11.396 23.4814 10.771 23.7523 10.0626 23.7523C9.35429 23.7523 8.78137 23.471 8.34387 22.9085C7.90637 22.346 7.77096 21.7106 7.93762 21.0023C8.89596 16.4189 11.1772 12.6064 14.7814 9.56476C18.3855 6.52309 22.6251 5.00226 27.5001 5.00226C33.0835 5.00226 37.8126 6.93976 41.6876 10.8148C45.5626 14.6898 47.5001 19.4189 47.5001 25.0023C47.5001 27.3356 47.1251 29.5335 46.3751 31.596C45.6251 33.6585 44.5835 35.5439 43.2501 37.2523L53.2501 47.2523C53.7085 47.7106 53.9376 48.2939 53.9376 49.0023C53.9376 49.7106 53.7085 50.2939 53.2501 50.7523C52.7918 51.2106 52.2085 51.4398 51.5001 51.4398C50.7918 51.4398 50.2085 51.2106 49.7501 50.7523L39.7501 40.7523C38.0418 42.0856 36.1564 43.1273 34.0939 43.8773C32.0314 44.6273 29.8335 45.0023 27.5001 45.0023ZM26.6876 28.3773L29.0001 21.1898C29.1251 20.8564 29.323 20.5752 29.5939 20.346C29.8647 20.1168 30.1876 20.0023 30.5626 20.0023H32.0626C32.396 20.0023 32.6876 20.0856 32.9376 20.2523C33.1876 20.4189 33.396 20.6481 33.5626 20.9398L36.8751 27.5023C37.4168 27.5023 37.8647 27.6793 38.2189 28.0335C38.573 28.3877 38.7501 28.8356 38.7501 29.3773C38.7501 29.9189 38.573 30.3668 38.2189 30.721C37.8647 31.0752 37.4168 31.2523 36.8751 31.2523H35.7501C35.4168 31.2523 35.0939 31.1585 34.7814 30.971C34.4689 30.7835 34.2293 30.5231 34.0626 30.1898L31.6251 25.3773L28.8751 33.8148C28.7501 34.1898 28.5418 34.4814 28.2501 34.6898C27.9585 34.8981 27.6251 35.0023 27.2501 35.0023H26.1251C25.7501 35.0023 25.4064 34.8877 25.0939 34.6585C24.7814 34.4293 24.5626 34.1273 24.4376 33.7523L20.8751 22.0023L18.0626 30.0023C17.9376 30.3773 17.7189 30.6793 17.4064 30.9085C17.0939 31.1377 16.7293 31.2523 16.3126 31.2523H6.87512C6.33346 31.2523 5.88554 31.0752 5.53137 30.721C5.17721 30.3668 5.00012 29.9189 5.00012 29.3773C5.00012 28.8356 5.17721 28.3877 5.53137 28.0335C5.88554 27.6793 6.33346 27.5023 6.87512 27.5023H15.0001L18.6876 16.8148C18.8126 16.4398 19.0314 16.1481 19.3439 15.9398C19.6564 15.7314 20.0001 15.6273 20.3751 15.6273H21.5626C21.9793 15.6273 22.3335 15.7523 22.6251 16.0023C22.9168 16.2523 23.1251 16.5648 23.2501 16.9398L26.6876 28.3773Z" fill="#333333"/>
</g>
</svg>
